<?xml version="1.0" encoding="UTF-8" standalone="no"?>
<svg
   xmlns:osb="http://www.openswatchbook.org/uri/2009/osb"
   xmlns:dc="http://purl.org/dc/elements/1.1/"
   xmlns:cc="http://creativecommons.org/ns#"
   xmlns:rdf="http://www.w3.org/1999/02/22-rdf-syntax-ns#"
   xmlns:svg="http://www.w3.org/2000/svg"
   xmlns="http://www.w3.org/2000/svg"
   viewBox="0 0 128 128"
   height="128"
   width="128"
   version="1.1"
   id="svg2">
  <metadata
     id="metadata8">
    <rdf:RDF>
      <cc:Work
         rdf:about="">
        <dc:format>image/svg+xml</dc:format>
        <dc:type
           rdf:resource="http://purl.org/dc/dcmitype/StillImage" />
        <dc:title></dc:title>
      </cc:Work>
    </rdf:RDF>
  </metadata>
  <defs
     id="defs6">
    <linearGradient
       osb:paint="solid"
       id="linearGradient8150">
      <stop
         id="stop8152"
         offset="0"
         style="stop-color:#ffffff;stop-opacity:1;" />
    </linearGradient>
  </defs>
  <path
     id="path8070"
     d="M 61.564453 8.2519531 A 57.698359 57.803649 45.007196 0 0 4.25 66.541016 A 57.698359 57.803649 45.007196 0 0 62.435547 123.74805 A 57.698359 57.803649 45.007196 0 0 119.75 65.458984 A 57.698359 57.803649 45.007196 0 0 61.564453 8.2519531 z M 56.246094 33.054688 C 64.087882 33.278866 69.683003 38.275081 70.527344 46.003906 C 71.170644 51.896336 68.957226 58.650941 64.478516 64.462891 L 79.130859 79.201172 L 82.917969 75.435547 L 77.779297 70.267578 L 83.453125 64.626953 L 97.552734 78.810547 L 91.880859 84.451172 L 87.148438 79.691406 L 83.361328 83.455078 L 92.8125 92.960938 C 92.86584 93.006417 92.917297 93.054016 92.966797 93.103516 C 94.385957 94.530316 93.948711 97.265731 91.990234 99.212891 C 90.032261 101.15897 87.295672 101.58039 85.876953 100.1543 L 85.869141 100.16211 L 57.289062 71.416016 C 55.284903 72.853266 53.165776 74.036934 51.001953 74.927734 C 39.01269 79.863964 28.3156 74.917226 27.109375 63.878906 C 25.903665 52.840406 34.645482 39.89077 46.634766 34.955078 C 49.325238 33.847179 52.042622 33.209392 54.648438 33.074219 C 55.190451 33.046143 55.723308 33.039742 56.246094 33.054688 z M 53.382812 41.130859 C 48.964534 41.130859 45.382812 44.712579 45.382812 49.130859 C 45.386193 50.546129 45.36457 51.534779 46.080078 52.755859 C 44.858232 52.040709 43.868876 52.062547 42.453125 52.060547 C 38.034847 52.060547 34.453125 55.642267 34.453125 60.060547 C 34.453125 64.478827 38.034847 68.060547 42.453125 68.060547 C 46.871403 68.060547 50.453125 64.478827 50.453125 60.060547 C 50.449251 58.643597 50.469496 57.75309 49.751953 56.53125 C 50.97456 57.24844 51.965376 57.127859 53.382812 57.130859 C 57.801091 57.130859 61.382812 53.549139 61.382812 49.130859 C 61.382812 44.712579 57.801091 41.130859 53.382812 41.130859 z "
     style="opacity:1;fill:#ffffff;fill-opacity:1;stroke:none;stroke-width:0.49785411;stroke-miterlimit:4;stroke-dasharray:none;stroke-opacity:1" />
  <a
     transform="translate(61.999997,-61.999997)"
     style="opacity:1;stroke:none;stroke-width:0.4;stroke-miterlimit:4;stroke-dasharray:none;stroke-opacity:1;fill:#000000;fill-opacity:1"
     id="a8169" />
  <g
     transform="translate(-58.638931,59.998162)"
     style="fill:#000000"
     id="g8139" />
</svg>
